<svg xmlns="http://www.w3.org/2000/svg" version="1.1" xmlns:xlink="http://www.w3.org/1999/xlink" xmlns:svgjs="http://svgjs.dev/svgjs" width="100%" height="100%" viewBox="0 0 1000 600"><rect width="1000" height="600" x="0" y="0" fill="#dddddd"/><g><circle r="166.66666666666666" cx="296.9296213785807" cy="319.15184388246576" fill="BLue" transform="matrix(0.9595971940840771,0,0,0.959597194084077,0,-6.257250340781823)"/><path d="M335.7279366659077 244.15185267256044L354.65909596990673 244.15185267256044L354.65909596990673 386.54315614570095Q354.65909596990673 394.151851751136 347.26175302017816 394.151851751136L347.26175302017816 394.151851751136L328.57213960841534 394.151851751136Q325.3112700632289 394.151851751136 323.34870968881114 392.64218992466084Q321.3861493143934 391.10233486165606 320.0878401436247 388.05281797217623L320.0878401436247 388.05281797217623L269.4235892471171 281.77262538832235Q267.46102887269933 277.42479932807373 264.864410531162 271.99001675276304Q262.26779218962463 266.55523417745235 260.93928978232645 261.96586222496774L260.93928978232645 261.96586222496774L257.4670675814335 261.96586222496774Q257.9199661293761 266.7665868331589 258.1313187850826 271.74847086052705Q258.3426714407891 276.76054812442464 258.3426714407891 281.77262538832235L258.3426714407891 281.77262538832235L258.3426714407891 394.151851751136L239.20015948108366 394.151851751136L239.20015948108366 251.76054827799544Q239.20015948108366 244.15185267256044 246.80885508651863 244.15185267256044L246.80885508651863 244.15185267256044L264.864410531162 244.15185267256044Q268.1252800763484 244.15185267256044 270.0878404507662 245.66151449903563Q272.05040082518394 247.20136956204033 273.3487099959526 250.25088645152024L273.3487099959526 250.25088645152024L322.47310582945556 353.9344606938368Q324.8583715152863 358.4936394097918 327.57576280294165 364.2605475869271Q330.293154090597 370.0274557640624 332.67841977642786 375.67359099507956L332.67841977642786 375.67359099507956L336.3921878695568 375.67359099507956Q336.1808352138503 369.8161031083558 335.9392893216142 364.1397746408091Q335.7279366659077 358.4936394097918 335.7279366659077 352.8475041787746L335.7279366659077 352.8475041787746L335.7279366659077 244.15185267256044Z " fill="#777777" transform="matrix(0.9595971940840771,0,0,0.959597194084077,0,-6.257250340781823)"/><path d="M609.2881866218223 286.4948081086493L609.2881866218223 286.4948081086493Q637.0876392284154 286.4948081086493 637.0876392284154 314.73319944060967L637.0876392284154 314.73319944060967L637.0876392284154 391.6352641249535L619.1789392334312 391.6352641249535L619.1789392334312 319.79562607317877Q619.1789392334312 309.4659347362025 615.8137423389488 305.57401137127954Q612.4485454444665 301.6820880063565 604.4305980610912 301.6820880063565L604.4305980610912 301.6820880063565Q594.9495215931585 301.6820880063565 585.4684451252257 306.3055759135583Q575.9873686572929 310.9290638207601 562.9362572230397 318.9470112041353L562.9362572230397 318.9470112041353L562.0876423539963 306.10073784172016Q574.0853008473681 296.8244994456254 585.907383850593 291.67428506798296Q597.7002042721266 286.4948081086493 609.2881866218223 286.4948081086493ZM546.9296250379803 289.0406527157794L562.0876423539963 289.0406527157794L563.5507714385539 308.61731986715915L564.8383250329645 311.7776786898034L564.8383250329645 391.6352641249535L546.9296250379803 391.6352641249535L546.9296250379803 289.0406527157794ZM670.1836191211067 289.0406527157794L687.8582184625617 289.0406527157794L687.8582184625617 391.6352641249535L670.1836191211067 391.6352641249535L670.1836191211067 289.0406527157794ZM674.8071070283085 245.41014341427382L683.2347305553599 245.41014341427382Q688.706833331605 245.41014341427382 688.706833331605 250.88224619051897L688.706833331605 250.88224619051897L688.706833331605 262.9091672655819Q688.706833331605 268.38127004182707 683.2347305553599 268.38127004182707L683.2347305553599 268.38127004182707L674.8071070283085 268.38127004182707Q669.3350042520634 268.38127004182707 669.3350042520634 262.9091672655819L669.3350042520634 262.9091672655819L669.3350042520634 250.88224619051897Q669.3350042520634 245.41014341427382 674.8071070283085 245.41014341427382L674.8071070283085 245.41014341427382ZM784.5710509518145 289.0406527157794L805.4352716976049 289.0406527157794L773.187906673957 326.73085793398144Q771.7247775893994 328.63292574390624 769.6178717076365 330.6520438805956Q767.5109658258738 332.64189943559387 766.0478367413162 333.6953523764752L766.0478367413162 333.6953523764752L766.0478367413162 334.1050285201514Q767.5109658258738 335.15848146103275 769.6178717076365 337.5872757413983Q771.7247775893994 340.0160700217638 773.187906673957 342.3278139753647L773.187906673957 342.3278139753647L808.8004685920872 391.6352641249535L787.9362478462969 391.6352641249535L747.2905218772886 332.8467375074319L784.5710509518145 289.0406527157794ZM721.5687125707672 244.15185240155432L739.4774125657515 244.15185240155432L739.7115132192806 309.6707728080406Q739.7115132192806 316.1963285251672 739.1847867488399 321.7854816281769Q738.6580602783991 327.37463473118675 737.6046073375178 333.4905143046372L737.6046073375178 333.4905143046372Q738.6580602783991 339.3722932245585 739.0677364220753 345.28333472617095Q739.4774125657515 351.1943762277834 739.4774125657515 356.66647900402853L739.4774125657515 356.66647900402853L739.4774125657515 391.6352641249535L721.5687125707672 391.6352641249535L721.5687125707672 244.15185240155432ZM733.1566949204629 327.1697966593487L756.9764364170595 327.1697966593487L756.9764364170595 340.22090809360185L733.1566949204629 340.22090809360185L733.1566949204629 327.1697966593487ZM867.793833281447 286.4948081086493L867.793833281447 286.4948081086493Q890.9697979808383 286.4948081086493 901.4165396445791 294.9224316357007Q911.8340187266286 303.350055162752 911.8340187266286 320.0004641450168L911.8340187266286 320.0004641450168Q912.0388567984666 333.6953523764752 906.1570778785455 341.3914113612479Q900.2460363769329 349.08747034602055 887.3997630145178 349.08747034602055L887.3997630145178 349.08747034602055L827.5577834561149 349.08747034602055L827.5577834561149 335.15848146103275L882.7470125256249 335.15848146103275Q889.7115069681188 335.15848146103275 891.8184128498816 330.41794322706636Q893.9253187316444 325.67740499309997 893.9253187316444 320.0004641450168L893.9253187316444 320.0004641450168Q893.7204806598064 310.1097115334078 888.014277230032 305.89589976988213Q882.3373363819488 301.6820880063565 868.6424481504903 301.6820880063565L868.6424481504903 301.6820880063565Q857.4641419444707 301.6820880063565 851.0556365541087 304.93023457407423Q844.6178685820556 308.2076437234831 841.9842362298522 316.31337885193176Q839.3506038776485 324.4191139803805 839.3506038776485 338.96261708088235L839.3506038776485 338.96261708088235Q839.3506038776485 355.40818799130903 842.6280130270574 364.0406495901985Q845.8761595947751 372.67311118908793 853.045492109107 375.83347001173223Q860.214824623439 378.9938288343764 872.0076450449726 378.9938288343764L872.0076450449726 378.9938288343764Q880.230430500186 378.9938288343764 890.0333953667214 378.26226429209765Q899.8363602332569 377.5306997498189 907.620206963103 376.47724680893754L907.620206963103 376.47724680893754L909.5222747730278 388.4749053023093Q904.6646862122967 390.376973112234 897.6124040247295 391.6352641249535Q890.5601218371621 392.893555137673 883.0689009242276 393.5373319348783Q875.6069425929842 394.1518461503925 869.6959010913716 394.1518461503925L869.6959010913716 394.1518461503925Q851.9920391682257 394.1518461503925 841.2526716875733 388.7967937009119Q830.513304206921 383.4124786697402 825.5679279011166 371.5026079214419Q820.593289013621 359.6219997548347 820.593289013621 340.0160700217638L820.593289013621 340.0160700217638Q820.593289013621 319.79562607317877 825.5679279011166 308.0905933967184Q830.513304206921 296.41482330194935 840.9307832889707 291.4401844144537Q851.3775249527115 286.4948081086493 867.793833281447 286.4948081086493Z " fill="#000000" transform="matrix(0.9595971940840771,0,0,0.959597194084077,0,-6.257250340781823)"/></g></svg>